# xmcd
#
# Track frame offsets:
#       150
#       15912
#       30364
#       44831
#       58743
#       72607
#       87786
#       102253
#       116590
#       131608
#       145165
#       159717
#       174396
#       188036
#       201877
#       216985
#       229909
#       243308
#
# Disc length: 3449 seconds
#
# Revision: 1
# Processed by: cddbd v1.5.2PL0 Copyright (c) Steve Scherf et al.
# Submitted via: FreeDbEdit v0.1
#
DISCID=010d7712
DTITLE=Bessie Smith - Jazz Basics
DYEAR=1900
DGENRE=Jazz
TTITLE0=Down-Hearted Blues
TTITLE1=Weeping Willow Blues
TTITLE2=St. Louis Blues
TTITLE3=Reckless Blues
TTITLE4=Sobbin' Hearted Blues
TTITLE5=Jazzbo Brown From Memphis Town
TTITLE6=Money Blues
TTITLE7=Young Woman's Blues
TTITLE8=Back-Water Blues
TTITLE9=After You've Gone
TTITLE10=Trombone Cholly
TTITLE11=Mean Old Bed Bug Blues
TTITLE12=Dyin' by the Hour
TTITLE13=Empty Bed Blues Part 1
TTITLE14=Empty Bed Blues Part 2
TTITLE15=Nobody Knows You When You're Down and Out
TTITLE16=Me and My Gin
TTITLE17=Do Your Duty
EXTD=
EXTT0=
EXTT1=
EXTT2=
EXTT3=
EXTT4=
EXTT5=
EXTT6=
EXTT7=
EXTT8=
EXTT9=
EXTT10=
EXTT11=
EXTT12=
EXTT13=
EXTT14=
EXTT15=
EXTT16=
EXTT17=
PLAYORDER=
